<svg width="20" height="19" viewBox="0 0 20 19" fill="none" xmlns="http://www.w3.org/2000/svg">
<path d="M19.3191 16.679H0.681564C0.561028 16.679 0.4646 16.7754 0.4646 16.8933V18.5004C0.4646 18.6183 0.561028 18.7147 0.681564 18.7147H19.3191C19.4396 18.7147 19.536 18.6183 19.536 18.5004V16.8933C19.536 16.7754 19.4396 16.679 19.3191 16.679ZM9.83156 13.7058C9.85161 13.7314 9.87722 13.7521 9.90646 13.7663C9.93569 13.7806 9.96779 13.788 10.0003 13.788C10.0328 13.788 10.0649 13.7806 10.0942 13.7663C10.1234 13.7521 10.149 13.7314 10.1691 13.7058L13.1691 9.91024C13.2789 9.77095 13.1798 9.5647 13.0003 9.5647H11.0155V0.500419C11.0155 0.382561 10.9191 0.286133 10.8012 0.286133H9.19406C9.07621 0.286133 8.97978 0.382561 8.97978 0.500419V9.56203H7.00031C6.82085 9.56203 6.72174 9.76828 6.83156 9.90756L9.83156 13.7058Z" fill="#E5E5E5"/>
</svg>
